<svg xmlns="http://www.w3.org/2000/svg" viewBox="0 0 512 512">
  <!-- stylized "26" mark: white numerals on a hunter-green rounded square (offline-safe, pure vector) -->
  <rect width="512" height="512" rx="104" fill="#355e3b"/>
  <path fill="#ffffff" d="M183.6 284.7L136.9 325.7L233.1 325.7L233.1 367.2L74.2 367.2L74.2 325.7L154 255.3Q164.7 245.6 169.8 236.4Q175 227.2 175 217.2Q175 201.8 164.6 192.4Q154.3 183.1 137.2 183.1Q124 183.1 108.3 188.7Q92.6 194.4 74.8 205.5L74.8 157.4Q93.8 151.1 112.4 147.8Q131 144.5 148.9 144.5Q188.1 144.5 209.9 161.8Q231.7 179.1 231.7 210Q231.7 227.9 222.4 243.4Q213.2 258.8 183.6 284.7M353.7 259.2Q338.9 259.2 331.5 268.8Q324.1 278.4 324.1 297.6Q324.1 316.8 331.5 326.4Q338.9 336 353.7 336Q368.7 336 376.1 326.4Q383.5 316.8 383.5 297.6Q383.5 278.4 376.1 268.8Q368.7 259.2 353.7 259.2M423.5 154.2L423.5 194.6Q409.5 188.1 397.2 184.9Q384.9 181.8 373.2 181.8Q348 181.8 334 195.7Q319.9 209.7 317.6 237.3Q327.2 230.1 338.5 226.5Q349.8 222.9 363.1 222.9Q396.7 222.9 417.2 242.5Q437.8 262.2 437.8 294Q437.8 329.1 414.8 350.3Q391.8 371.5 353.2 371.5Q310.5 371.5 287.2 342.7Q263.8 313.9 263.8 261Q263.8 206.8 291.1 175.8Q318.4 144.8 366 144.8Q381.1 144.8 395.3 147.2Q409.5 149.5 423.5 154.2"/>
</svg>
